<svg width="22" height="20" viewBox="0 0 22 20" fill="none" xmlns="http://www.w3.org/2000/svg">
<path fill-rule="evenodd" clip-rule="evenodd" d="M5 5.5H17H18C19.1046 5.5 20 6.39543 20 7.5V15.5C20 16.6046 19.1046 17.5 18 17.5H4C2.89543 17.5 2 16.6046 2 15.5V7.5C2 6.39543 2.89543 5.5 4 5.5H5ZM6 3.5V1.5C6 0.947715 5.55228 0.5 5 0.5C4.44772 0.5 4 0.947715 4 1.5V3.5C1.79086 3.5 0 5.29086 0 7.5V15.5C0 17.7091 1.79086 19.5 4 19.5H18C20.2091 19.5 22 17.7091 22 15.5V7.5C22 5.29086 20.2091 3.5 18 3.5V1.5C18 0.947715 17.5523 0.5 17 0.5C16.4477 0.5 16 0.947715 16 1.5V3.5H6Z" fill="#7C7E92" fill-opacity="0.56"/>
</svg>
