<svg width="28" height="28" viewBox="0 0 28 28" fill="none" xmlns="http://www.w3.org/2000/svg">
<path fill-rule="evenodd" clip-rule="evenodd" d="M0.650686 13.9999C0.65071 13.1322 1.35421 12.4287 2.22199 12.4287L12.5718 12.429L12.5715 2.07923C12.5715 1.21144 13.2749 0.507945 14.1427 0.50792C15.0105 0.507896 15.714 1.21135 15.714 2.07914L15.7143 12.4291L26.0633 12.4294C26.9311 12.4294 27.6345 13.1329 27.6345 14.0007C27.6345 14.8685 26.931 15.5719 26.0632 15.5719L15.7144 15.5716L15.7147 25.9204C15.7147 26.7882 15.0112 27.4917 14.1435 27.4917C13.2757 27.4918 12.5722 26.7883 12.5722 25.9205L12.5719 15.5715L2.22191 15.5712C1.35412 15.5712 0.650662 14.8677 0.650686 13.9999Z" fill="#4CAF50"/>
</svg>
